<?xml version="1.0" encoding="UTF-8" standalone="no"?>
<!DOCTYPE svg PUBLIC "-//W3C//DTD SVG 1.0//EN" "http://www.w3.org/TR/2001/PR-SVG-20010719/DTD/svg10.dtd">
<svg width="34cm" height="15cm" viewBox="217 -159 665 287" xmlns="http://www.w3.org/2000/svg" xmlns:xlink="http://www.w3.org/1999/xlink">
  <g id="Background"/>
  <g id="Background"/>
  <g id="Background">
    <g>
      <path style="fill: #ffffff; fill-opacity: 1; stroke-opacity: 1; stroke-width: 2; stroke: #000000" fill-rule="evenodd" d="M 245.253 -115.795 L 284.903,-115.795 C 290.378,-115.795 294.816,-109.639 294.816,-102.045 C 294.816,-94.4514 290.378,-88.2953 284.903,-88.2953 L 245.253,-88.2953 C 239.779,-88.2953 235.341,-94.4514 235.341,-102.045 C 235.341,-109.639 239.779,-115.795 245.253,-115.795z"/>
      <text font-size="12.8" style="fill: #000000; fill-opacity: 1; stroke: none;text-anchor:middle;font-family:sans-serif;font-style:normal;font-weight:normal" x="265.078" y="-98.0453">
        <tspan x="265.078" y="-98.0453">inicio</tspan>
      </text>
    </g>
    <g>
      <polygon style="fill: #ffffff; fill-opacity: 1; stroke-opacity: 1; stroke-width: 2; stroke: #000000" fill-rule="evenodd" points="264.377,-37.7352 310.12,-0.126183 264.377,37.4828 218.634,-0.126183 "/>
      <text font-size="12.8" style="fill: #000000; fill-opacity: 1; stroke: none;text-anchor:middle;font-family:sans-serif;font-style:normal;font-weight:normal" x="264.377" y="3.77382">
        <tspan x="264.377" y="3.77382">kick ?</tspan>
      </text>
    </g>
    <g>
      <ellipse style="fill: #ffffff; fill-opacity: 1; stroke-opacity: 1; stroke-width: 2; stroke: #000000" cx="327.531" cy="55.3744" rx="25.827" ry="25.2056"/>
      <text font-size="12.8" style="fill: #000000; fill-opacity: 1; stroke: none;text-anchor:middle;font-family:sans-serif;font-style:normal;font-weight:normal" x="327.531" y="59.2744">
        <tspan x="327.531" y="59.2744">nao</tspan>
      </text>
    </g>
    <g>
      <ellipse style="fill: #ffffff; fill-opacity: 1; stroke-opacity: 1; stroke-width: 2; stroke: #000000" cx="328.182" cy="-49.5213" rx="25.0256" ry="24.9747"/>
      <text font-size="12.8" style="fill: #000000; fill-opacity: 1; stroke: none;text-anchor:middle;font-family:sans-serif;font-style:normal;font-weight:normal" x="328.182" y="-45.6213">
        <tspan x="328.182" y="-45.6213">sim</tspan>
      </text>
    </g>
    <g>
      <polygon style="fill: #ffffff; fill-opacity: 1; stroke-opacity: 1; stroke-width: 2; stroke: #000000" fill-rule="evenodd" points="402.885,-38.152 453.491,-0.0986991 402.885,37.9546 352.278,-0.0986991 "/>
      <text font-size="12.8" style="fill: #000000; fill-opacity: 1; stroke: none;text-anchor:middle;font-family:sans-serif;font-style:normal;font-weight:normal" x="402.885" y="3.8013">
        <tspan x="402.885" y="3.8013">opt ?</tspan>
      </text>
    </g>
    <g>
      <ellipse style="fill: #ffffff; fill-opacity: 1; stroke-opacity: 1; stroke-width: 2; stroke: #000000" cx="479.467" cy="-54.3907" rx="25.3855" ry="25.2742"/>
      <text font-size="12.8" style="fill: #000000; fill-opacity: 1; stroke: none;text-anchor:middle;font-family:sans-serif;font-style:normal;font-weight:normal" x="479.467" y="-50.4907">
        <tspan x="479.467" y="-50.4907">nao</tspan>
      </text>
    </g>
    <g>
      <ellipse style="fill: #ffffff; fill-opacity: 1; stroke-opacity: 1; stroke-width: 2; stroke: #000000" cx="480.138" cy="51.6129" rx="25.0256" ry="24.9747"/>
      <text font-size="12.8" style="fill: #000000; fill-opacity: 1; stroke: none;text-anchor:middle;font-family:sans-serif;font-style:normal;font-weight:normal" x="480.138" y="55.5129">
        <tspan x="480.138" y="55.5129">sim</tspan>
      </text>
    </g>
    <g>
      <line style="fill: none; stroke-opacity: 1; stroke-width: 2; stroke: #000000" x1="264.977" y1="-87.3024" x2="264.708" y2="-48.2434"/>
      <polygon style="fill: #000000; fill-opacity: 1; stroke-opacity: 1; stroke-width: 2; stroke: #000000" fill-rule="evenodd" points="264.656,-40.7436 259.725,-50.7778 264.708,-48.2434 269.725,-50.709 "/>
    </g>
    <g>
      <line style="fill: none; stroke-opacity: 1; stroke-width: 2; stroke: #000000" x1="287.077" y1="19.8227" x2="300.282" y2="31.4273"/>
      <polygon style="fill: #000000; fill-opacity: 1; stroke-opacity: 1; stroke-width: 2; stroke: #000000" fill-rule="evenodd" points="305.915,36.3783 295.103,33.5328 300.282,31.4273 301.704,26.0212 "/>
    </g>
    <g>
      <line style="fill: none; stroke-opacity: 1; stroke-width: 2; stroke: #000000" x1="288.561" y1="-18.8483" x2="299.913" y2="-27.637"/>
      <polygon style="fill: #000000; fill-opacity: 1; stroke-opacity: 1; stroke-width: 2; stroke: #000000" fill-rule="evenodd" points="305.844,-32.2281 300.997,-22.1529 299.913,-27.637 294.876,-30.0603 "/>
    </g>
    <g>
      <line style="fill: none; stroke-opacity: 1; stroke-width: 2; stroke: #000000" x1="348.954" y1="39.6033" x2="368.801" y2="24.9928"/>
      <polygon style="fill: #000000; fill-opacity: 1; stroke-opacity: 1; stroke-width: 2; stroke: #000000" fill-rule="evenodd" points="374.841,20.5464 369.752,30.5014 368.801,24.9928 363.823,22.4483 "/>
    </g>
    <g>
      <line style="fill: none; stroke-opacity: 1; stroke-width: 2; stroke: #000000" x1="430.355" y1="18.2895" x2="450.428" y2="31.7258"/>
      <polygon style="fill: #000000; fill-opacity: 1; stroke-opacity: 1; stroke-width: 2; stroke: #000000" fill-rule="evenodd" points="456.66,35.8978 445.569,34.4902 450.428,31.7258 451.132,26.1802 "/>
    </g>
    <g>
      <line style="fill: none; stroke-opacity: 1; stroke-width: 2; stroke: #000000" x1="429.603" y1="-19.0399" x2="450.042" y2="-33.5301"/>
      <polygon style="fill: #000000; fill-opacity: 1; stroke-opacity: 1; stroke-width: 2; stroke: #000000" fill-rule="evenodd" points="456.16,-37.8676 450.894,-28.0052 450.042,-33.5301 445.111,-36.1632 "/>
    </g>
    <g>
      <polygon style="fill: #ffffff; fill-opacity: 1; stroke-opacity: 1; stroke-width: 2; stroke: #000000" fill-rule="evenodd" points="552.317,-49.2566 604.803,0.799449 552.317,50.8555 499.832,0.799449 "/>
      <text font-size="12.8" style="fill: #000000; fill-opacity: 1; stroke: none;text-anchor:middle;font-family:sans-serif;font-style:normal;font-weight:normal" x="552.317" y="-3.30055">
        <tspan x="552.317" y="-3.30055">existe</tspan>
        <tspan xml:space="preserve" x="552.317" y="12.6994"> $1 ?</tspan>
      </text>
    </g>
    <g>
      <ellipse style="fill: #ffffff; fill-opacity: 1; stroke-opacity: 1; stroke-width: 2; stroke: #000000" cx="620.006" cy="-55.6538" rx="25.3855" ry="25.2742"/>
      <text font-size="12.8" style="fill: #000000; fill-opacity: 1; stroke: none;text-anchor:middle;font-family:sans-serif;font-style:normal;font-weight:normal" x="620.006" y="-51.7538">
        <tspan x="620.006" y="-51.7538">nao</tspan>
      </text>
    </g>
    <g>
      <ellipse style="fill: #ffffff; fill-opacity: 1; stroke-opacity: 1; stroke-width: 2; stroke: #000000" cx="626.47" cy="48.6897" rx="25.0256" ry="24.9747"/>
      <text font-size="12.8" style="fill: #000000; fill-opacity: 1; stroke: none;text-anchor:middle;font-family:sans-serif;font-style:normal;font-weight:normal" x="626.47" y="52.5897">
        <tspan x="626.47" y="52.5897">sim</tspan>
      </text>
    </g>
    <g>
      <line style="fill: none; stroke-opacity: 1; stroke-width: 2; stroke: #000000" x1="584.238" y1="21.4153" x2="596.449" y2="29.3013"/>
      <polygon style="fill: #000000; fill-opacity: 1; stroke-opacity: 1; stroke-width: 2; stroke: #000000" fill-rule="evenodd" points="602.749,33.3703 591.636,32.1452 596.449,29.3013 597.061,23.7448 "/>
    </g>
    <g>
      <line style="fill: none; stroke-opacity: 1; stroke-width: 2; stroke: #000000" x1="580.877" y1="-23.0202" x2="592.297" y2="-32.5446"/>
      <polygon style="fill: #000000; fill-opacity: 1; stroke-opacity: 1; stroke-width: 2; stroke: #000000" fill-rule="evenodd" points="598.057,-37.3484 593.58,-27.1036 592.297,-32.5446 587.175,-34.7832 "/>
    </g>
    <g>
      <line style="fill: none; stroke-opacity: 1; stroke-width: 2; stroke: #000000" x1="501.399" y1="36.6455" x2="513.588" y2="28.0642"/>
      <polygon style="fill: #000000; fill-opacity: 1; stroke-opacity: 1; stroke-width: 2; stroke: #000000" fill-rule="evenodd" points="519.721,23.7469 514.422,33.5918 513.588,28.0642 508.666,25.4149 "/>
    </g>
    <g>
      <polygon style="fill: #ffffff; fill-opacity: 1; stroke-opacity: 1; stroke-width: 2; stroke: #000000" fill-rule="evenodd" points="687.816,-50.1602 737.9,-2.05813 687.816,46.0439 637.732,-2.05813 "/>
      <text font-size="12.8" style="fill: #000000; fill-opacity: 1; stroke: none;text-anchor:middle;font-family:sans-serif;font-style:normal;font-weight:normal" x="687.816" y="-6.15813">
        <tspan x="687.816" y="-6.15813">opt</tspan>
        <tspan x="687.816" y="9.84187">join ?</tspan>
      </text>
    </g>
    <g>
      <ellipse style="fill: #ffffff; fill-opacity: 1; stroke-opacity: 1; stroke-width: 2; stroke: #000000" cx="745.808" cy="-54.4372" rx="25.3855" ry="25.2742"/>
      <text font-size="12.8" style="fill: #000000; fill-opacity: 1; stroke: none;text-anchor:middle;font-family:sans-serif;font-style:normal;font-weight:normal" x="745.808" y="-50.5372">
        <tspan x="745.808" y="-50.5372">nao</tspan>
      </text>
    </g>
    <g>
      <ellipse style="fill: #ffffff; fill-opacity: 1; stroke-opacity: 1; stroke-width: 2; stroke: #000000" cx="745.23" cy="60.1575" rx="25.0256" ry="24.9747"/>
      <text font-size="12.8" style="fill: #000000; fill-opacity: 1; stroke: none;text-anchor:middle;font-family:sans-serif;font-style:normal;font-weight:normal" x="745.23" y="64.0575">
        <tspan x="745.23" y="64.0575">sim</tspan>
      </text>
    </g>
    <g>
      <line style="fill: none; stroke-opacity: 1; stroke-width: 2; stroke: #000000" x1="711.827" y1="23.9613" x2="721.007" y2="33.9095"/>
      <polygon style="fill: #000000; fill-opacity: 1; stroke-opacity: 1; stroke-width: 2; stroke: #000000" fill-rule="evenodd" points="726.094,39.4212 715.637,35.4631 721.007,33.9095 722.986,28.6814 "/>
    </g>
    <g>
      <line style="fill: none; stroke-opacity: 1; stroke-width: 2; stroke: #000000" x1="714.157" y1="-25.8499" x2="719.037" y2="-30.2576"/>
      <polygon style="fill: #000000; fill-opacity: 1; stroke-opacity: 1; stroke-width: 2; stroke: #000000" fill-rule="evenodd" points="724.603,-35.2848 720.533,-24.8714 719.037,-30.2576 713.83,-32.2925 "/>
    </g>
    <g>
      <line style="fill: none; stroke-opacity: 1; stroke-width: 2; stroke: #000000" x1="640.675" y1="-39.3173" x2="652.129" y2="-30.2643"/>
      <polygon style="fill: #000000; fill-opacity: 1; stroke-opacity: 1; stroke-width: 2; stroke: #000000" fill-rule="evenodd" points="658.013,-25.6137 647.067,-27.8918 652.129,-30.2643 653.268,-35.7372 "/>
    </g>
    <g>
      <line style="fill: none; stroke-opacity: 1; stroke-width: 2; stroke: #000000" x1="764.889" y1="43.2005" x2="780.38" y2="29.8394"/>
      <polygon style="fill: #000000; fill-opacity: 1; stroke-opacity: 1; stroke-width: 2; stroke: #000000" fill-rule="evenodd" points="786.059,24.9408 781.752,35.2584 780.38,29.8394 775.221,27.6861 "/>
    </g>
    <g>
      <rect style="fill: #ffffff; fill-opacity: 1; stroke-opacity: 1; stroke-width: 2; stroke: #000000" x="782.882" y="-31.5131" width="74.65" height="54" rx="0" ry="0"/>
      <text font-size="12.8" style="fill: #000000; fill-opacity: 1; stroke: none;text-anchor:middle;font-family:sans-serif;font-style:normal;font-weight:normal" x="820.207" y="-8.61306">
        <tspan x="820.207" y="-8.61306">split </tspan>
        <tspan x="820.207" y="7.38694">shot opt</tspan>
      </text>
    </g>
    <g>
      <rect style="fill: #ffffff; fill-opacity: 1; stroke-opacity: 1; stroke-width: 2; stroke: #000000" x="510.816" y="81.6363" width="84" height="43.3333" rx="0" ry="0"/>
      <line style="fill: none; stroke-opacity: 1; stroke-width: 2; stroke: #000000" x1="519.216" y1="81.6363" x2="519.216" y2="124.97"/>
      <line style="fill: none; stroke-opacity: 1; stroke-width: 2; stroke: #000000" x1="586.416" y1="81.6363" x2="586.416" y2="124.97"/>
      <text font-size="12.8" style="fill: #000000; fill-opacity: 1; stroke: none;text-anchor:middle;font-family:sans-serif;font-style:normal;font-weight:normal" x="552.816" y="99.303">
        <tspan x="552.816" y="99.303">exec</tspan>
        <tspan x="552.816" y="115.303">$1</tspan>
      </text>
    </g>
    <g>
      <line style="fill: none; stroke-opacity: 1; stroke-width: 2; stroke: #000000" x1="605.593" y1="64.1697" x2="591.215" y2="74.8308"/>
      <polygon style="fill: #000000; fill-opacity: 1; stroke-opacity: 1; stroke-width: 2; stroke: #000000" fill-rule="evenodd" points="585.19,79.2979 590.245,69.3254 591.215,74.8308 596.201,77.3581 "/>
    </g>
    <g>
      <rect style="fill: #ffffff; fill-opacity: 1; stroke-opacity: 1; stroke-width: 2; stroke: #000000" x="354.476" y="81.4924" width="104" height="44" rx="0" ry="0"/>
      <line style="fill: none; stroke-opacity: 1; stroke-width: 2; stroke: #000000" x1="364.876" y1="81.4924" x2="364.876" y2="125.492"/>
      <line style="fill: none; stroke-opacity: 1; stroke-width: 2; stroke: #000000" x1="448.076" y1="81.4924" x2="448.076" y2="125.492"/>
      <text font-size="12.8" style="fill: #000000; fill-opacity: 1; stroke: none;text-anchor:middle;font-family:sans-serif;font-style:normal;font-weight:normal" x="406.476" y="99.4924">
        <tspan x="406.476" y="99.4924">shift</tspan>
        <tspan x="406.476" y="115.492">vs_jump</tspan>
      </text>
    </g>
    <g>
      <line style="fill: none; stroke-opacity: 1; stroke-width: 2; stroke: #000000" x1="509.871" y1="103.359" x2="469.16" y2="103.411"/>
      <polygon style="fill: #000000; fill-opacity: 1; stroke-opacity: 1; stroke-width: 2; stroke: #000000" fill-rule="evenodd" points="461.66,103.421 471.654,98.408 469.16,103.411 471.667,108.408 "/>
    </g>
    <g>
      <rect style="fill: #ffffff; fill-opacity: 1; stroke-opacity: 1; stroke-width: 2; stroke: #000000" x="364.189" y="-133.213" width="74.65" height="54" rx="0" ry="0"/>
      <text font-size="12.8" style="fill: #000000; fill-opacity: 1; stroke: none;text-anchor:middle;font-family:sans-serif;font-style:normal;font-weight:normal" x="401.514" y="-110.313">
        <tspan x="401.514" y="-110.313">criar</tspan>
        <tspan x="401.514" y="-94.3125">shot opt</tspan>
      </text>
    </g>
    <g>
      <line style="fill: none; stroke-opacity: 1; stroke-width: 2; stroke: #000000" x1="348.753" y1="-65.4242" x2="357.647" y2="-72.2997"/>
      <polygon style="fill: #000000; fill-opacity: 1; stroke-opacity: 1; stroke-width: 2; stroke: #000000" fill-rule="evenodd" points="363.58,-76.8868 358.727,-66.8149 357.647,-72.2997 352.611,-74.7264 "/>
    </g>
    <g>
      <line style="fill: none; stroke-opacity: 1; stroke-width: 2; stroke: #000000" x1="401.876" y1="-78.2204" x2="402.259" y2="-48.4997"/>
      <polygon style="fill: #000000; fill-opacity: 1; stroke-opacity: 1; stroke-width: 2; stroke: #000000" fill-rule="evenodd" points="402.356,-41.0003 397.228,-50.9349 402.259,-48.4997 407.227,-51.0641 "/>
    </g>
    <g>
      <rect style="fill: #ffffff; fill-opacity: 1; stroke-opacity: 1; stroke-width: 2; stroke: #000000" x="779.943" y="-137.038" width="81.3333" height="53.3333" rx="0" ry="0"/>
      <line style="fill: none; stroke-opacity: 1; stroke-width: 2; stroke: #000000" x1="788.076" y1="-137.038" x2="788.076" y2="-83.7049"/>
      <line style="fill: none; stroke-opacity: 1; stroke-width: 2; stroke: #000000" x1="853.143" y1="-137.038" x2="853.143" y2="-83.7049"/>
      <text font-size="12.8" style="fill: #000000; fill-opacity: 1; stroke: none;text-anchor:middle;font-family:sans-serif;font-style:normal;font-weight:normal" x="820.61" y="-114.372">
        <tspan x="820.61" y="-114.372">exec</tspan>
        <tspan x="820.61" y="-98.3716">default</tspan>
      </text>
    </g>
    <g>
      <line style="fill: none; stroke-opacity: 1; stroke-width: 2; stroke: #000000" x1="766.882" y1="-70.1961" x2="775.831" y2="-76.888"/>
      <polygon style="fill: #000000; fill-opacity: 1; stroke-opacity: 1; stroke-width: 2; stroke: #000000" fill-rule="evenodd" points="781.838,-81.3794 776.824,-71.3866 775.831,-76.888 770.835,-79.3952 "/>
    </g>
    <g>
      <line style="fill: none; stroke-opacity: 1; stroke-width: 2; stroke: #000000" x1="405.679" y1="80.5031" x2="404.541" y2="47.6815"/>
      <polygon style="fill: #000000; fill-opacity: 1; stroke-opacity: 1; stroke-width: 2; stroke: #000000" fill-rule="evenodd" points="404.281,40.186 409.625,50.0068 404.541,47.6815 399.631,50.3533 "/>
    </g>
    <g>
      <polyline style="fill: none; stroke-opacity: 1; stroke-width: 2; stroke: #000000" points="858.533,-4.48205 879.079,-4.46542 880.761,-156.668 489.744,-157.508 422.821,-36.2255 "/>
      <polygon style="fill: #000000; fill-opacity: 1; stroke-opacity: 1; stroke-width: 2; stroke: #000000" fill-rule="evenodd" points="419.197,-29.6589 419.651,-40.83 422.821,-36.2255 428.406,-35.9988 "/>
    </g>
    <g>
      <path style="fill: #ffffff; fill-opacity: 1; stroke-opacity: 1; stroke-width: 2; stroke: #000000" fill-rule="evenodd" d="M 669.61 -97.9141 L 698.986,-97.9141 C 703.042,-97.9141 706.33,-92.9892 706.33,-86.9141 C 706.33,-80.839 703.042,-75.9141 698.986,-75.9141 L 669.61,-75.9141 C 665.554,-75.9141 662.266,-80.839 662.266,-86.9141 C 662.266,-92.9892 665.554,-97.9141 669.61,-97.9141z"/>
      <text font-size="12.8" style="fill: #000000; fill-opacity: 1; stroke: none;text-anchor:middle;font-family:sans-serif;font-style:normal;font-weight:normal" x="684.298" y="-82.9141">
        <tspan x="684.298" y="-82.9141">fim</tspan>
      </text>
    </g>
    <g>
      <line style="fill: none; stroke-opacity: 1; stroke-width: 2; stroke: #000000" x1="779.943" y1="-123.705" x2="594.133" y2="-127.708"/>
      <polygon style="fill: #000000; fill-opacity: 1; stroke-opacity: 1; stroke-width: 2; stroke: #000000" fill-rule="evenodd" points="586.635,-127.87 596.74,-132.653 594.133,-127.708 596.525,-122.656 "/>
    </g>
    <g>
      <rect style="fill: #ffffff; fill-opacity: 1; stroke-opacity: 1; stroke-width: 2; stroke: #000000" x="525.536" y="-137.418" width="58.8626" height="38" rx="0" ry="0"/>
      <line style="fill: none; stroke-opacity: 1; stroke-width: 2; stroke: #000000" x1="531.423" y1="-137.418" x2="531.423" y2="-99.4179"/>
      <line style="fill: none; stroke-opacity: 1; stroke-width: 2; stroke: #000000" x1="578.513" y1="-137.418" x2="578.513" y2="-99.4179"/>
      <text font-size="12.8" style="fill: #000000; fill-opacity: 1; stroke: none;text-anchor:middle;font-family:sans-serif;font-style:normal;font-weight:normal" x="554.968" y="-122.418">
        <tspan x="554.968" y="-122.418">exec</tspan>
        <tspan x="554.968" y="-106.418">start</tspan>
      </text>
    </g>
    <g>
      <line style="fill: none; stroke-opacity: 1; stroke-width: 2; stroke: #000000" x1="499.541" y1="-71.4136" x2="526.308" y2="-94.1132"/>
      <polygon style="fill: #000000; fill-opacity: 1; stroke-opacity: 1; stroke-width: 2; stroke: #000000" fill-rule="evenodd" points="532.028,-98.964 527.635,-88.6829 526.308,-94.1132 521.167,-96.3096 "/>
    </g>
    <g>
      <line style="fill: none; stroke-opacity: 1; stroke-width: 2; stroke: #000000" x1="585.343" y1="-111.019" x2="652.97" y2="-94.5453"/>
      <polygon style="fill: #000000; fill-opacity: 1; stroke-opacity: 1; stroke-width: 2; stroke: #000000" fill-rule="evenodd" points="660.257,-92.7702 649.358,-90.279 652.97,-94.5453 651.725,-99.9949 "/>
    </g>
  </g>
</svg>
